<?xml version="1.0" standalone="no"?>
<!DOCTYPE svg PUBLIC "-//W3C//DTD SVG 1.0//EN" "http://www.w3.org/TR/2001/REC-SVG-20010904/DTD/svg10.dtd">
<svg xmlns="http://www.w3.org/2000/svg" xmlns:xlink="http://www.w3.org/1999/xlink" id="body_1" width="64" height="64" viewBox="0 0 512 512" >

<g transform="matrix(1 0 0 1 0 0)">
	<g>
        <path d="M-1214.044 600.752L-41.491943 600.752L-41.491943 788.57404L-1214.044 788.57404z" stroke="none" fill="none" />
		<text transform="matrix(1 0 0 1 -763.0703 719.248)" x="0" y="0" style="fill:#2564eb;font-family:ABeeZee;" font-size="210.1005">
inc
		</text>
	</g>
	<g>
    <path d="M321.623 427.645C 307.49197 448.469 293.313 469.36298 278.83298 490.692C 265.99298 471.503 255.31598 455.537 245.01598 440.13898C 286.119 439.60498 312.266 413.08398 312.37497 370.951C 312.42096 354.012 316.42496 338.474 329.22998 326.016C 348.41797 307.349 351.66498 282.805 353.128 257.822C 353.53198 250.801 353.19 243.741 353.19 235.85599C 379.907 251.83199 398.13202 285.051 404.637 327.69397C 395.72 320.92896 386.705 314.09296 377.69098 307.25797C 376.055 307.63696 374.41998 308.02298 372.77798 308.40598C 383.42398 362.054 358.804 405.84497 334.24698 451.63196C 330.116 443.785 325.931 435.827 321.623 427.645z" stroke="none" fill="#2564eb" fill-rule="nonzero" />
    <path d="M417.077 194.047C 391.731 174.741 367.838 156.393 343.776 138.269C 320.646 120.852 316.053 97.317 332.335 73.645C 346.384 53.217995 361.323 33.199997 386.758 25.887997C 390.904 24.692997 398.893 26.001997 400.621 28.857996C 432.638 81.847 436.734 137.563 417.077 194.047zM390.196 40.88C 364.903 57.355003 350.41702 79.318 343.812 106.166C 341.50302 115.544 338.21402 129.483 351.565 132.169C 358.236 133.51201 367.969 125.211006 374.601 119.33001C 379.50302 114.99401 381.626 107.52101 386.778 98.20501C 385.52402 111.16901 384.64 120.280014 383.595 131.08101C 388.856 128.27701 392.744 126.20701 399.47 122.62701C 396.78 134.60701 393.885 143.419 393.197 152.401C 392.891 156.456 396.975 160.847 399.065 165.088C 402.499 162.58499 406.41602 160.526 409.186 157.431C 411.081 155.317 411.528 151.807 412.365 148.852C 423.437 109.609 411.409 75.185 390.196 40.88z" stroke="none" fill="#2564eb" fill-rule="nonzero" />
    <path d="M85.842 192.281C 67.583 137.484 70.626 82.575 101.668 30.336C 103.435 27.363 110.903 24.502 113.484 25.852001C 125.137 31.966002 137.076 38.398003 146.82 47.065002C 155.88 55.119003 162.87401 65.752 169.74501 75.948C 184.21301 97.412994 181.11801 118.307 160.667 134.618C 136.044 154.253 110.799 173.103 85.842 192.281zM109.304 38.131C 101.296 57.386 93.315 73.895004 87.542 91.14C 80.282 112.852 81.847 134.974 90.686 156.06C 92.457 160.282 98.288994 162.8 102.245995 166.103C 104.49 160.94899 108.357994 155.86299 108.574 150.623C 108.869995 143.498 106.375 136.254 104.899994 128.078C 110.976 129.493 114.463 130.30301 118.7 131.29001C 118.7 123.53701 118.7 117.30501 118.7 108.311005C 122.416 114.704 124.190994 119.03001 127.062996 122.428C 133.338 129.872 140.887 140.061 150.961 132.74901C 156.449 128.75601 159.648 116.84101 158.499 109.31901C 154.02 79.95 137.457 57.695 109.304 38.131z" stroke="none" fill="#2564eb" fill-rule="nonzero" />
    <path d="M152.431 294.077C 165.035 316.636 176.809 335.181 185.823 354.99298C 189.837 363.82098 186.868 375.57797 189.61299 385.287C 193.277 398.25 199.41699 410.516 204.055 422.003C 161.218 397.944 142.1 345.926 152.431 294.077z" stroke="none" fill="#2564eb" fill-rule="nonzero" />
    <path d="M251.814 359.879C 273.00198 360.342 285.898 368.272 285.35098 381.242C 284.741 395.838 272.09198 404.432 251.40399 403.763C 244.874 403.548 236.56499 404.309 232.297 400.75C 225.813 395.347 218.956 386.8 218.39499 379.138C 218.01898 374.03 227.594 366.951 234.07799 362.99C 238.845 360.082 245.822 360.787 251.814 359.879z" stroke="none" fill="#2564eb" fill-rule="nonzero" />
    <path d="M295.922 234.583C 303.28198 238.592 308.03198 241.18399 312.776 243.769C 315.688 237.937 318.607 232.106 322.504 224.304C 325.248 225.132 330.783 226.804 336.317 228.476C 336.883 230.216 337.44897 231.955 338.012 233.69699C 323.597 241.46399 309.181 249.232 294.76398 256.998C 293.50797 255.94598 292.25198 254.90298 290.994 253.85098C 292.778 246.854 294.569 239.856 295.922 234.583z" stroke="none" fill="#2564eb" fill-rule="nonzero" />
    <path d="M167.285 228.691C 173.237 226.905 179.185 225.11499 183.681 223.76599C 185.635 231.52399 187.148 237.55899 188.664 243.59499C 194.789 241.84799 200.912 240.09999 208.743 237.86998C 209.457 241.39497 210.69 247.45297 212.96399 258.662C 194.57098 248.9 180.31699 241.33398 166.05899 233.76498C 166.47 232.07 166.877 230.382 167.285 228.691z" stroke="none" fill="#2564eb" fill-rule="nonzero" />
    <path d="M279.353 419.279C 261.323 433.215 244.20099 433.331 224.67 419.279C 244.222 419.279 260.421 419.279 279.353 419.279z" stroke="none" fill="#2564eb" fill-rule="nonzero" />
	</g>
</g>
</svg>